<svg xmlns="http://www.w3.org/2000/svg" viewBox="0 0 1600 500" preserveAspectRatio="xMidYMax slice">
  <defs>
    <linearGradient id="sky" x1="0" y1="0" x2="0" y2="1">
      <stop offset="0" stop-color="#faf7f1"/><stop offset="1" stop-color="#f3e7cd"/>
    </linearGradient>
  </defs>
  <rect width="1600" height="500" fill="url(#sky)"/>
  <g fill="#10231b" opacity="0.10">
    <path d="M0 500 V360 h120 v-40 l60-45 60 45 v40 h110 v-70 l70-50 70 50 v70 h130 v-30 h90 v-60 l55-40 55 40 v60 h100 V330 h140 v-50 l65-46 65 46 v50 h120 v-40 h110 v130 z"/>
  </g>
  <g fill="#c79a3b" opacity="0.14">
    <path d="M240 500 V300 l80-58 80 58 v200 z"/>
    <path d="M760 500 V320 l70-52 70 52 v180 z"/>
    <path d="M1230 500 V290 l85-60 85 60 v210 z"/>
  </g>
  <g fill="#10231b" opacity="0.16">
    <rect x="286" y="330" width="18" height="24" rx="2"/>
    <rect x="336" y="330" width="18" height="24" rx="2"/>
    <rect x="800" y="350" width="16" height="22" rx="2"/>
    <rect x="1276" y="322" width="18" height="24" rx="2"/>
    <rect x="1326" y="322" width="18" height="24" rx="2"/>
  </g>
</svg>
